# xmcd CD database file
#
# Track frame offsets:
#	150
#	23708
#	45811
#	65304
#	92932
#	121615
#	146117
#	168350
#	187835
#	214784
#	244107
#	265461
#
# Disc length: 3802 seconds
#
# Revision: 0
# Processed by: cddbd v1.5.1PL2 Copyright (c) Steve Scherf et al.
# Submitted via: CDex 1.51
#
DISCID=9d0ed80c
DTITLE=Piano Schulze - Blues - Boogie Woogie and more
DYEAR=2002
DGENRE=Blues
TTITLE0=Hi-heel sneakers
TTITLE1=Talk to me, baby
TTITLE2=Indian boogie woogie
TTITLE3=Rumba blues No. 1
TTITLE4=Help me
TTITLE5=Boogie woogie, nothing else
TTITLE6=Honky tonk funky blues
TTITLE7=Blues for Jimmy
TTITLE8=Mercy, mercy, mercy
TTITLE9=Ain´t nobodys business
TTITLE10=Boogie woogie prayer
TTITLE11=Warm up boogie
EXTD=YEAR: 2002
EXTT0=
EXTT1=
EXTT2=
EXTT3=
EXTT4=
EXTT5=
EXTT6=
EXTT7=
EXTT8=
EXTT9=
EXTT10=
EXTT11=
PLAYORDER=
